#!OML:ASF Y:\EmotionMaleHayes\Project 1\Capture day 1\Session 1\Male1.ASF
:FULLY-SPECIFIED
:DEGREES
2278
root 6.42722 16.9583 -15.8781 533.706 -58.9978 189.356
lowerback 1.69235 5.5807 2.73878
upperback -0.744969 7.45804 -2.62886
thorax -1.01073 3.69736 -4.3728
lowerneck -22.7719 6.18652 6.37841
upperneck 22.1446 7.62977 -4.85167
head 11.4203 3.32523 -1.57902
rclavicle -2.18663e-014 9.54166e-015
rhumerus -22.5517 17.7663 -91.361
rradius 44.6659
rwrist -1.05537
rhand -7.97237 -29.8902
rfingers 7.12502
rthumb 17.9354 -59.0832
lclavicle -2.18663e-014 9.54166e-015
lhumerus -45.2499 3.41492 79.2784
lradius 23.5253
lwrist -14.3413
lhand -11.1909 -22.0452
lfingers 7.12502
lthumb 14.8365 7.4036
rfemur 21.6694 -7.81186 21.8481
rtibia 10.0823
rfoot -17.4728 -20.7368
rtoes -16.9796
lfemur -11.9774 16.2832 -15.572
ltibia 2.96077
lfoot -6.632 20.188
ltoes 23.883
2279
root 6.2929 16.9765 -15.9042 534.075 -59.4041 188.865
lowerback 1.58468 5.52867 2.59987
upperback -0.788024 7.37863 -2.77293
thorax -1.00081 3.65674 -4.43517
lowerneck -22.7728 6.2722 6.38274
upperneck 22.1467 7.69657 -4.65662
head 11.4163 3.38186 -1.49605
rclavicle 9.68578e-014 -2.8625e-014
rhumerus -23.2466 18.1193 -91.7324
rradius 44.621
rwrist -0.902035
rhand -8.19773 -29.4032
rfingers 7.12502
rthumb 17.7186 -58.6159
lclavicle 9.68578e-014 -2.8625e-014
lhumerus -44.8342 3.09022 79.1597
lradius 23.7217
lwrist -13.9617
lhand -11.7242 -22.0641
lfingers 7.12502
lthumb 14.3228 7.42186
rfemur 21.7094 -7.65733 21.3084
rtibia 10.8769
rfoot -17.6658 -20.4543
rtoes -12.7483
lfemur -11.5732 16.792 -16.1951
ltibia 3.13431
lfoot -5.94458 19.4472
ltoes 21.6058
2280
root 6.17373 16.9956 -15.9331 534.087 -59.8232 188.751
lowerback 1.72862 5.47582 2.46413
upperback -0.927529 7.30379 -2.81103
thorax -1.24372 3.61207 -4.42529
lowerneck -22.7718 6.17995 6.24529
upperneck 22.3538 7.54519 -4.38075
head 11.4661 3.33485 -1.39871
rclavicle 4.06515e-014 9.54166e-015
rhumerus -24.1265 18.3129 -92.0787
rradius 44.8321
rwrist -1.1577
rhand -8.4576 -29.2685
rfingers 7.12502
rthumb 17.4685 -58.5036
lclavicle 4.06515e-014 9.54166e-015
lhumerus -44.6189 2.72019 79.079
lradius 24.133
lwrist -13.5243
lhand -11.856 -21.841
lfingers 7.12502
lthumb 14.1957 7.65391
rfemur 21.6602 -7.62768 21.1014
rtibia 11.699
rfoot -16.8719 -21.1132
rtoes -12.4872
lfemur -11.2033 16.9684 -16.3985
ltibia 3.35268
lfoot -6.16598 18.7493
ltoes 20.1205
2281
root 6.06818 17.0149 -15.9636 534.033 -60.0966 188.625
lowerback 2.02969 5.44846 2.21246
upperback -1.02097 7.26205 -2.78852
thorax -1.5458 3.58498 -4.30415
lowerneck -22.6411 6.08477 6.23068
upperneck 22.274 7.40834 -4.3344
head 11.4003 3.28161 -1.406
rclavicle 5.06901e-015 2.38542e-014
rhumerus -24.9694 18.4483 -92.371
rradius 45.0185
rwrist -1.21672
rhand -8.50127 -29.1673
rfingers 7.12502
rthumb 17.4265 -58.4062
lclavicle 5.06901e-015 2.38542e-014
lhumerus -44.1781 2.37562 79.0786
lradius 24.3321
lwrist -13.0823
lhand -12.1231 -22.0137
lfingers 7.12502
lthumb 13.9384 7.49913
rfemur 21.5334 -7.26555 21.1149
rtibia 12.6038
rfoot -15.9307 -22.0656
rtoes -12.7025
lfemur -10.7007 16.701 -16.389
ltibia 3.48531
lfoot -6.66403 18.2837
ltoes 19.6612
2282
root 5.8961 17.0195 -15.989 534.583 -60.4245 187.914
lowerback 1.41343 5.4094 2.08585
upperback -0.911926 7.1975 -2.9061
thorax -1.09541 3.56332 -4.28004
lowerneck -22.466 6.07437 6.40047
upperneck 22.0004 7.38319 -4.50402
head 11.2779 3.27007 -1.50374
rclavicle 2.77802e-014 1.74931e-014
rhumerus -25.7301 18.6854 -92.6954
rradius 45.0816
rwrist -1.33881
rhand -8.48986 -28.7271
rfingers 7.12502
rthumb 17.4374 -57.9649
lclavicle 2.77802e-014 1.74931e-014
lhumerus -43.6195 2.16916 79.0408
lradius 24.4067
lwrist -12.6468
lhand -12.6719 -22.5536
lfingers 7.12502
lthumb 13.4094 6.99479
rfemur 21.7549 -8.16109 19.7017
rtibia 13.4487
rfoot -14.3279 -21.3979
rtoes -14.5773
lfemur -9.84639 17.1438 -17.154
ltibia 3.1942
lfoot -6.1895 17.1433
ltoes 20.5789
2283
root 5.77306 17.0378 -16.0166 534.527 -60.6669 187.698
lowerback 1.49079 5.35587 1.83681
upperback -0.843185 7.12296 -2.81107
thorax -1.11655 3.52849 -4.05035
lowerneck -22.4967 6.09218 6.48303
upperneck 21.9486 7.42957 -4.69776
head 11.2795 3.27317 -1.57944
rclavicle 6.24681e-014 -4.45278e-014
rhumerus -26.3703 19.0938 -92.8616
rradius 45.1433
rwrist -1.68846
rhand -8.57421 -28.6245
rfingers 7.12502
rthumb 17.3563 -57.8696
lclavicle 6.24681e-014 -4.45278e-014
lhumerus -43.0732 2.09193 79.0844
lradius 24.6363
lwrist -12.1805
lhand -13.0949 -22.7892
lfingers 7.12502
lthumb 13.0017 6.78569
rfemur 21.6337 -7.67215 19.6459
rtibia 14.6047
rfoot -13.6882 -21.893
rtoes -13.3102
lfemur -9.16058 17.1365 -17.2146
ltibia 3.28328
lfoot -6.25633 16.7254
ltoes 22.3434
2284
root 5.65205 17.0552 -16.0401 534.424 -61.0996 187.534
lowerback 1.5669 5.23497 1.58469
upperback -0.740356 6.96008 -2.66566
thorax -1.11449 3.45063 -3.7644
lowerneck -22.7582 6.08774 6.30953
upperneck 22.0938 7.46833 -4.67148
head 11.3768 3.27284 -1.52961
rclavicle -5.71506e-014 1.43125e-014
rhumerus -26.8976 19.4965 -92.8833
rradius 45.0954
rwrist -1.86301
rhand -8.65751 -28.8608
rfingers 7.12502
rthumb 17.2761 -58.1129
lclavicle -5.71506e-014 1.43125e-014
lhumerus -42.5141 2.05013 79.2276
lradius 25.0169
lwrist -11.7667
lhand -13.3067 -22.6782
lfingers 7.12502
lthumb 12.7975 6.90952
rfemur 21.4731 -7.30544 19.5743
rtibia 15.9282
rfoot -13.5026 -22.1475
rtoes -9.11911
lfemur -8.58952 17.1265 -17.363
ltibia 3.53985
lfoot -6.34012 16.1433
ltoes 22.9007
